<?xml version="1.0" encoding="UTF-8"?>
<svg id="Layer_1" data-name="Layer 1" xmlns="http://www.w3.org/2000/svg" viewBox="0 0 1000 1000">
  <defs>
    <style>
      .cls-1 {
        fill: #fff;
      }

      .cls-2 {
        font-family: Dutch801BT-BoldItalic, 'Dutch801 Rm BT';
        font-size: 172.15px;
        font-style: italic;
        font-weight: 700;
        letter-spacing: -.02em;
      }

      .cls-3 {
        font-family: Arial-Black, Arial;
        font-size: 103.05px;
        font-weight: 800;
        letter-spacing: -.11em;
      }

      .cls-4 {
        fill: #231f20;
      }
    </style>
  </defs>
  <path class="cls-1" d="m500,0h0C775.96,0,1000,224.04,1000,500h0c0,275.96-224.04,500-500,500h0C224.04,1000,0,775.96,0,500H0C0,224.04,224.04,0,500,0Z"/>
  <g>
    <rect x="165.06" y="419.55" width="12.43" height="162.77" rx="6.21" ry="6.21"/>
    <g>
      <g>
        <text class="cls-3" transform="translate(188.69 493.13) scale(.65 1)"><tspan x="0" y="0">THE INTERNET</tspan></text>
        <rect x="591.04" y="432.38" width="24.12" height="5.2"/>
      </g>
      <text></text>
      <text class="cls-2" transform="translate(190.78 582.32) scale(.87 1)"><tspan x="0" y="0">community</tspan></text>
    </g>
  </g>
  <g>
    <polygon class="cls-4" points="503.79 37.3 512.62 20.04 520.87 36.99 539.92 39.38 525.87 52.95 528.81 71.69 511.88 63.13 494.65 72.32 498.23 53.46 484.64 40.39 503.79 37.3"/>
    <polygon class="cls-4" points="610.39 50.65 622.97 35.88 627.08 54.28 645.07 61 628.27 70.97 626.81 89.88 612.31 77.64 593.42 82.61 601.26 65.09 591.05 49.24 610.39 50.65"/>
    <polygon class="cls-4" points="711.04 88.22 726.69 76.75 726.45 95.6 742.4 106.29 723.75 112.11 717.97 130.18 706.69 114.93 687.16 115.41 698.83 100.16 692.55 82.39 711.04 88.22"/>
    <polygon class="cls-4" points="800.32 147.99 818.18 140.44 813.6 158.73 826.66 172.8 807.18 174.17 797.38 190.42 789.92 172.97 770.81 168.94 785.68 156.79 783.66 138.05 800.32 147.99"/>
    <polygon class="cls-4" points="873.4 226.73 892.53 223.51 883.85 240.25 893.31 256.96 874.04 253.79 860.76 267.34 857.52 248.65 839.86 240.31 857.13 231.93 859.49 213.22 873.4 226.73"/>
    <polygon class="cls-4" points="926.36 320.21 945.71 321.49 933.41 335.77 938.76 354.21 920.74 346.69 904.69 356.81 905.85 337.87 890.58 325.69 909.32 321.51 915.93 303.86 926.36 320.21"/>
    <polygon class="cls-4" points="956.33 423.38 974.86 429.08 959.6 440.15 960.55 459.33 944.75 447.85 926.8 454 932.3 435.84 920.25 420.46 939.45 420.72 949.96 405.07 956.33 423.38"/>
    <polygon class="cls-4" points="961.7 530.68 978.42 540.51 961.02 547.75 957.52 566.63 944.79 551.82 925.91 553.67 935.44 537.26 927.27 519.52 945.89 524.2 959.72 511.39 961.7 530.68"/>
    <polygon class="cls-4" points="942.18 636.33 956.18 649.75 937.58 652.78 929.82 670.35 920.85 653 902.05 650.44 915.11 636.68 911.25 617.53 928.29 626.38 944.7 617.1 942.18 636.33"/>
    <polygon class="cls-4" points="898.82 734.63 909.35 750.91 890.55 749.58 878.95 764.88 874.22 745.93 856.52 739.1 872.4 728.73 873.06 709.2 887.6 721.74 905.71 716.5 898.82 734.63"/>
    <polygon class="cls-4" points="833.96 820.28 840.45 838.55 822.46 832.92 807.65 845.13 807.42 825.6 791.77 814.88 809.61 808.44 814.76 789.6 826.02 805.15 844.84 804.23 833.96 820.28"/>
    <polygon class="cls-4" points="751.09 888.66 753.2 907.94 736.99 898.31 719.76 906.78 724.04 887.72 711.29 873.68 730.14 871.53 739.49 854.38 746.86 872.11 765.39 875.56 751.09 888.66"/>
    <polygon class="cls-4" points="654.7 936.09 652.3 955.34 638.75 942.23 620.03 946.49 628.59 928.94 619.42 912.33 638.25 914.59 651.31 900.06 654.39 919.01 671.63 926.64 654.7 936.09"/>
    <polygon class="cls-4" points="549.95 960.01 543.18 978.18 533.03 962.3 513.83 962.14 526.2 947.03 521.11 928.76 538.92 935.3 554.97 924.17 553.6 943.32 568.61 954.71 549.95 960.01"/>
    <polygon class="cls-4" points="442.52 959.13 431.74 975.25 425.52 957.46 406.88 952.87 422.4 941.02 421.66 922.07 437.48 932.54 455.67 925.41 449.91 943.73 461.9 958.28 442.52 959.13"/>
    <polygon class="cls-4" points="338.19 933.5 323.98 946.7 322.03 927.95 304.95 919.19 322.79 911.24 326.44 892.62 339.42 906.46 358.75 903.72 348.93 920.22 357.24 937.14 338.19 933.5"/>
    <polygon class="cls-4" points="242.58 884.5 225.71 894.07 228.13 875.37 213.53 862.91 232.73 859.29 240.57 842.01 250.01 858.47 269.46 860.26 256.1 874.05 260.27 892.43 242.58 884.5"/>
    <polygon class="cls-4" points="160.85 814.77 142.23 820.19 148.9 802.56 137.56 787.06 157.07 787.97 168.69 772.97 174.08 791.16 192.59 797.39 176.41 807.72 176.23 826.57 160.85 814.77"/>
    <polygon class="cls-4" points="97.4 728.07 78.03 729.05 88.59 713.43 81.13 695.74 99.91 701.12 114.67 689.2 115.72 708.15 132.29 718.48 114.17 724.8 109.65 743.1 97.4 728.07"/>
    <polygon class="cls-4" points="55.65 629.08 36.58 625.56 50.45 612.8 47.28 593.87 64.31 603.43 81.42 595.24 78.07 613.91 91.82 627.79 72.72 629.76 64.11 646.53 55.65 629.08"/>
    <polygon class="cls-4" points="37.86 523.12 20.11 515.31 36.56 506.09 37.84 486.93 52.2 500.17 70.74 496.14 63.18 513.54 73.35 530.21 54.32 527.73 42.06 542.06 37.86 523.12"/>
    <polygon class="cls-4" points="44.99 415.92 29.52 404.23 47.65 399.05 53.31 380.7 64.23 396.89 83.2 397.25 71.83 412.44 77.89 431.01 59.93 424.2 44.71 435.32 44.99 415.92"/>
    <polygon class="cls-4" points="76.64 313.26 64.29 298.31 83.12 297.45 92.86 280.9 99.76 299.18 118.13 303.9 103.56 316.05 105.18 335.52 89.28 324.76 71.9 332.06 76.64 313.26"/>
    <polygon class="cls-4" points="131.12 220.66 122.55 203.26 141.07 206.77 154.36 192.92 156.86 212.29 173.65 221.12 156.67 229.59 153.75 248.9 140.76 234.76 122.17 237.86 131.12 220.66"/>
    <polygon class="cls-4" points="205.48 143.12 201.15 124.21 218.37 131.9 234.5 121.49 232.46 140.91 246.76 153.38 228.29 157.7 220.99 175.82 211.61 159.06 192.81 157.79 205.48 143.12"/>
    <polygon class="cls-4" points="295.72 84.82 295.87 65.42 310.85 76.87 328.95 70.46 322.48 88.89 333.52 104.32 314.55 104.27 303.27 120.21 298.01 101.75 280 96.17 295.72 84.82"/>
    <polygon class="cls-4" points="396.98 48.9 401.59 30.06 413.53 44.66 432.62 42.59 422.08 59.03 429.26 76.59 410.81 72.16 396.16 85.08 395.3 65.9 379.06 56.32 396.98 48.9"/>
  </g>
</svg>