<?xml version="1.0" encoding="UTF-8"?>
<svg id="Layer_1" data-name="Layer 1" xmlns="http://www.w3.org/2000/svg" viewBox="0 0 959.93 959.93">
  <defs>
    <style>
      .cls-1, .cls-2, .cls-3 {
        fill: #fff;
      }

      .cls-2 {
        font-family: Arial-Black, Arial;
        font-size: 103.05px;
        font-weight: 800;
        letter-spacing: -.11em;
      }

      .cls-3 {
        font-family: Dutch801BT-BoldItalic, 'Dutch801 Rm BT';
        font-size: 172.15px;
        font-style: italic;
        font-weight: 700;
        letter-spacing: -.02em;
      }
    </style>
  </defs>
  <g>
    <rect class="cls-1" x="145.02" y="399.51" width="12.43" height="162.77" rx="6.21" ry="6.21"/>
    <g>
      <g>
        <text class="cls-2" transform="translate(168.66 473.09) scale(.65 1)"><tspan x="0" y="0">THE INTERNET</tspan></text>
        <rect class="cls-1" x="571" y="412.34" width="24.12" height="5.2"/>
      </g>
      <text></text>
      <text class="cls-3" transform="translate(170.75 562.28) scale(.87 1)"><tspan x="0" y="0">community</tspan></text>
    </g>
  </g>
  <g>
    <polygon class="cls-1" points="483.75 17.26 492.58 0 500.83 16.95 519.88 19.34 505.83 32.91 508.77 51.66 491.84 43.09 474.61 52.28 478.2 33.42 464.61 20.36 483.75 17.26"/>
    <polygon class="cls-1" points="590.35 30.61 602.93 15.85 607.05 34.24 625.03 40.97 608.23 50.93 606.77 69.85 592.27 57.61 573.38 62.58 581.22 45.05 571.01 29.2 590.35 30.61"/>
    <polygon class="cls-1" points="691.01 68.18 706.65 56.72 706.41 75.57 722.36 86.25 703.72 92.08 697.93 110.14 686.65 94.89 667.12 95.37 678.79 80.12 672.51 62.35 691.01 68.18"/>
    <polygon class="cls-1" points="780.28 127.95 798.15 120.4 793.57 138.69 806.62 152.77 787.14 154.13 777.34 170.38 769.88 152.94 750.77 148.9 765.64 136.76 763.63 118.01 780.28 127.95"/>
    <polygon class="cls-1" points="853.37 206.7 872.49 203.47 863.82 220.21 873.28 236.92 854 233.76 840.72 247.31 837.48 228.61 819.82 220.28 837.09 211.89 839.45 193.19 853.37 206.7"/>
    <polygon class="cls-1" points="906.32 300.17 925.67 301.45 913.37 315.73 918.72 334.18 900.7 326.65 884.65 336.77 885.81 317.84 870.55 305.65 889.29 301.47 895.9 283.82 906.32 300.17"/>
    <polygon class="cls-1" points="936.29 403.35 954.83 409.05 939.57 420.11 940.52 439.29 924.71 427.81 906.77 433.96 912.26 415.8 900.22 400.43 919.42 400.68 929.92 385.03 936.29 403.35"/>
    <polygon class="cls-1" points="941.66 510.65 958.38 520.47 940.98 527.72 937.48 546.6 924.75 531.78 905.87 533.63 915.4 517.23 907.23 499.49 925.85 504.16 939.68 491.35 941.66 510.65"/>
    <polygon class="cls-1" points="922.14 616.29 936.14 629.71 917.54 632.75 909.78 650.31 900.81 632.96 882.02 630.4 895.07 616.64 891.21 597.5 908.25 606.34 924.67 597.07 922.14 616.29"/>
    <polygon class="cls-1" points="878.78 714.59 889.31 730.88 870.51 729.54 858.91 744.84 854.18 725.89 836.48 719.07 852.36 708.69 853.02 689.17 867.56 701.7 885.67 696.47 878.78 714.59"/>
    <polygon class="cls-1" points="813.92 800.24 820.41 818.51 802.43 812.88 787.61 825.1 787.38 805.57 771.73 794.84 789.58 788.4 794.72 769.56 805.98 785.11 824.81 784.19 813.92 800.24"/>
    <polygon class="cls-1" points="731.06 868.62 733.16 887.9 716.96 878.27 699.73 886.74 704.01 867.68 691.25 853.64 710.1 851.49 719.45 834.34 726.82 852.07 745.35 855.52 731.06 868.62"/>
    <polygon class="cls-1" points="634.66 916.05 632.26 935.3 618.71 922.19 599.99 926.46 608.55 908.9 599.38 892.29 618.22 894.55 631.27 880.02 634.35 898.97 651.59 906.6 634.66 916.05"/>
    <polygon class="cls-1" points="529.92 939.97 523.15 958.15 512.99 942.27 493.79 942.1 506.17 926.99 501.07 908.72 518.88 915.26 534.93 904.13 533.56 923.28 548.57 934.68 529.92 939.97"/>
    <polygon class="cls-1" points="422.49 939.09 411.71 955.22 405.48 937.42 386.84 932.83 402.37 920.99 401.62 902.03 417.44 912.5 435.63 905.37 429.88 923.69 441.86 938.24 422.49 939.09"/>
    <polygon class="cls-1" points="318.15 913.46 303.95 926.66 301.99 907.92 284.91 899.15 302.75 891.21 306.4 872.59 319.38 886.42 338.72 883.68 328.9 900.18 337.2 917.1 318.15 913.46"/>
    <polygon class="cls-1" points="222.54 864.46 205.67 874.03 208.1 855.34 193.5 842.87 212.69 839.25 220.53 821.98 229.97 838.43 249.42 840.23 236.06 854.01 240.24 872.4 222.54 864.46"/>
    <polygon class="cls-1" points="140.81 794.73 122.19 800.15 128.86 782.52 117.53 767.02 137.04 767.93 148.65 752.93 154.04 771.12 172.55 777.35 156.37 787.69 156.2 806.54 140.81 794.73"/>
    <polygon class="cls-1" points="77.36 708.03 57.99 709.02 68.55 693.4 61.1 675.7 79.87 681.08 94.63 669.17 95.68 688.11 112.26 698.44 94.13 704.77 89.61 723.07 77.36 708.03"/>
    <polygon class="cls-1" points="35.62 609.04 16.54 605.53 30.42 592.76 27.25 573.83 44.27 583.39 61.39 575.2 58.04 593.88 71.79 607.75 52.69 609.73 44.07 626.49 35.62 609.04"/>
    <polygon class="cls-1" points="17.83 503.09 .08 495.27 16.52 486.05 17.8 466.89 32.17 480.13 50.71 476.1 43.14 493.5 53.32 510.17 34.28 507.69 22.03 522.02 17.83 503.09"/>
    <polygon class="cls-1" points="24.95 395.89 9.48 384.19 27.61 379.01 33.27 360.67 44.2 376.86 63.17 377.22 51.79 392.4 57.85 410.97 39.9 404.16 24.67 415.28 24.95 395.89"/>
    <polygon class="cls-1" points="56.61 293.22 44.25 278.27 63.08 277.41 72.83 260.87 79.72 279.14 98.1 283.87 83.53 296.02 85.14 315.48 69.24 304.72 51.86 312.03 56.61 293.22"/>
    <polygon class="cls-1" points="111.08 200.62 102.51 183.23 121.03 186.73 134.33 172.88 136.82 192.25 153.61 201.09 136.63 209.55 133.71 228.86 120.73 214.72 102.13 217.83 111.08 200.62"/>
    <polygon class="cls-1" points="185.45 123.08 181.12 104.18 198.33 111.86 214.46 101.45 212.42 120.87 226.72 133.34 208.25 137.66 200.96 155.78 191.58 139.03 172.77 137.76 185.45 123.08"/>
    <polygon class="cls-1" points="275.69 64.78 275.83 45.39 290.81 56.83 308.91 50.42 302.45 68.85 313.49 84.28 294.51 84.23 283.24 100.18 277.98 81.71 259.97 76.14 275.69 64.78"/>
    <polygon class="cls-1" points="376.94 28.86 381.56 10.03 393.49 24.62 412.58 22.55 402.04 39 409.22 56.56 390.77 52.13 376.13 65.05 375.26 45.86 359.03 36.29 376.94 28.86"/>
  </g>
</svg>