<?xml version="1.0" encoding="UTF-8"?>
<svg id="Layer_1" data-name="Layer 1" xmlns="http://www.w3.org/2000/svg" viewBox="0 0 816.94 228.86">
  <defs>
    <style>
      .cls-1 {
        fill: #fff;
      }
    </style>
  </defs>
  <rect class="cls-1" x="0" y=".21" width="15.25" height="187.9" rx="7.62" ry="7.62"/>
  <g>
    <g>
      <g>
        <path class="cls-1" d="m30.86,0h54.94v21.03h-18.43v64.12h-18.08V21.03h-18.43V0Z"/>
        <path class="cls-1" d="m84.92,0h18.08v29.8h19.75V0h18.16v85.15h-18.16v-34.44h-19.75v34.44h-18.08V0Z"/>
        <path class="cls-1" d="m143.72,0h48.44v18.18h-30.33v13.53h28.13v17.37h-28.13v16.79h31.2v19.28h-49.32V0Z"/>
        <path class="cls-1" d="m212.44,0h18.12v85.15h-18.12V0Z"/>
        <path class="cls-1" d="m234.49,0h16.88l22.03,47.11V0h17.04v85.15h-17.04l-21.91-46.75v46.75h-17V0Z"/>
        <path class="cls-1" d="m289.18,0h54.94v21.03h-18.43v64.12h-18.08V21.03h-18.43V0Z"/>
        <path class="cls-1" d="m343.11,0h48.44v18.18h-30.33v13.53h28.13v17.37h-28.13v16.79h31.2v19.28h-49.32V0Z"/>
        <path class="cls-1" d="m393.25,85.15V0h30.13c5.59,0,9.86.7,12.81,2.09,2.95,1.39,5.33,3.98,7.14,7.75,1.81,3.78,2.71,8.37,2.71,13.79,0,4.73-.69,8.8-2.08,12.23-1.38,3.43-3.29,6.21-5.71,8.33-1.54,1.36-3.66,2.48-6.35,3.37,2.15,1.05,3.72,2.09,4.71,3.14.66.7,1.63,2.19,2.89,4.48,1.26,2.29,2.11,4.05,2.53,5.29l8.75,24.67h-20.42l-9.66-26.02c-1.22-3.37-2.31-5.56-3.27-6.56-1.3-1.32-2.78-1.97-4.43-1.97h-1.6v34.56h-18.16Zm18.16-50.65h7.62c.82,0,2.42-.39,4.79-1.16,1.2-.35,2.17-1.24,2.93-2.67.76-1.43,1.14-3.08,1.14-4.94,0-2.75-.6-4.86-1.8-6.33-1.2-1.47-3.45-2.21-6.74-2.21h-7.94v17.31Z"/>
        <path class="cls-1" d="m447.54,0h16.88l22.03,47.11V0h17.04v85.15h-17.04l-21.91-46.75v46.75h-17V0Z"/>
        <path class="cls-1" d="m506.3,0h48.44v18.18h-30.33v13.53h28.13v17.37h-28.13v16.79h31.2v19.28h-49.32V0Z"/>
        <path class="cls-1" d="m552.09,0h54.94v21.03h-18.43v64.12h-18.08V21.03h-18.43V0Z"/>
      </g>
      <rect class="cls-1" x="522.51" y="15.03" width="29.58" height="6"/>
    </g>
    <g>
      <path class="cls-1" d="m92.23,163.46c-5.07,9.06-10.57,15.9-16.51,20.52-5.94,4.62-12.21,6.94-18.84,6.94-8.83,0-15.69-2.78-20.58-8.35-4.89-5.56-7.34-13.33-7.34-23.29,0-7.38,1.36-14.75,4.07-22.12,2.71-7.38,6.49-14.04,11.32-19.99,5.31-6.47,11.14-11.53,17.5-15.19,6.35-3.65,12.51-5.48,18.48-5.48s11.14,1.71,15.17,5.14c4.03,3.43,6.04,7.67,6.04,12.71,0,4.14-1.06,7.42-3.18,9.85-2.12,2.43-4.97,3.64-8.55,3.64-3.1,0-5.58-.91-7.43-2.72-1.85-1.81-2.77-4.27-2.77-7.37,0-1.81.57-3.86,1.7-6.16,1.13-2.3,1.7-3.9,1.7-4.8,0-1.29-.37-2.31-1.12-3.06-.75-.74-1.83-1.12-3.27-1.12-2.45,0-5.13,1.47-8.05,4.42-2.92,2.94-5.67,6.97-8.23,12.08-3.28,6.66-5.85,13.49-7.7,20.47-1.85,6.99-2.77,13.42-2.77,19.31s1.18,10.62,3.53,14.02c2.36,3.39,5.59,5.09,9.71,5.09,3.58,0,7.23-1.54,10.96-4.61,3.73-3.07,7.47-7.65,11.23-13.73l4.92,3.79Z"/>
      <path class="cls-1" d="m100.64,159.1c0-6.92,1.33-13.99,3.98-21.2,2.65-7.21,6.4-13.99,11.23-20.33,5.61-7.24,11.29-12.6,17.05-16.06,5.76-3.46,11.89-5.19,18.39-5.19,9.25,0,16.52,2.81,21.84,8.44,5.31,5.63,7.96,13.33,7.96,23.09,0,6.66-1.25,13.55-3.76,20.67-2.51,7.12-6.12,13.94-10.83,20.47-5.25,7.38-10.92,12.88-17,16.5-6.09,3.62-12.71,5.44-19.87,5.44-8.65,0-15.65-2.93-20.98-8.78-5.34-5.85-8.01-13.54-8.01-23.04Zm49.67-56.47c-3.04,0-5.83,1.42-8.37,4.27-2.54,2.85-5.18,7.47-7.92,13.88-3.58,8.54-6.43,17.4-8.55,26.59-2.12,9.19-3.18,17.02-3.18,23.48,0,4.46.77,7.8,2.33,10,1.55,2.2,3.88,3.3,6.98,3.3s6.11-1.63,8.86-4.9c2.74-3.27,5.49-8.39,8.23-15.38,3.34-8.28,5.98-16.75,7.92-25.42,1.94-8.67,2.91-15.88,2.91-21.64,0-4.85-.75-8.43-2.24-10.72-1.49-2.3-3.82-3.45-6.98-3.45Z"/>
      <path class="cls-1" d="m190.85,107.47l-.36-5.04c5.13-.58,10.8-1.39,17-2.43,6.2-1.04,12.77-2.2,19.69-3.49l-9.58,34.35c6.98-12.03,13.51-20.8,19.6-26.3,6.08-5.5,12.26-8.25,18.52-8.25,4.47,0,7.89,1.28,10.25,3.83,2.36,2.56,3.53,6.23,3.53,11.01,0,1.55-.16,3.38-.49,5.48-.33,2.1-.85,4.51-1.57,7.23,6.03-9.44,11.77-16.4,17.23-20.86,5.46-4.46,10.96-6.7,16.51-6.7,4.47,0,7.89,1.26,10.25,3.78,2.36,2.52,3.53,6.21,3.53,11.06,0,2.59-.49,6.15-1.48,10.67-.98,4.53-2.4,9.8-4.25,15.82l-8.77,28.04c-.36,1.29-.63,2.38-.81,3.25-.18.87-.27,1.57-.27,2.09,0,1.23.27,2.23.81,3.01.54.78,1.22,1.16,2.06,1.16,1.37,0,2.88-.89,4.52-2.67,1.64-1.78,4.25-5.51,7.83-11.21l4.03,2.91c-5.55,9.38-10.59,16.14-15.12,20.28-4.53,4.14-9.16,6.21-13.87,6.21-3.94,0-6.97-1.29-9.08-3.88-2.12-2.59-3.18-6.27-3.18-11.06,0-2.97.54-6.79,1.61-11.45,1.07-4.66,3.16-11.9,6.26-21.74l6.26-20.28.18-.68c.95-3.36,1.43-5.6,1.43-6.7,0-1.23-.31-2.23-.94-3.01-.63-.78-1.48-1.17-2.55-1.17-5.49,0-11.37,5.18-17.63,15.53-6.26,10.35-12.23,24.87-17.9,43.57l-5.55,18.24h-21.03l18.52-65.79c.54-1.88.91-3.36,1.12-4.46.21-1.1.31-2.07.31-2.91,0-1.23-.31-2.23-.94-3.01-.63-.78-1.48-1.17-2.55-1.17-6.44,0-13.53,7.21-21.25,21.64-7.73,14.43-14,32.99-18.84,55.7h-21.84l15.39-62.39c.9-3.56,1.55-6.32,1.97-8.3.42-1.97.63-3.45.63-4.42,0-1.88-.61-3.27-1.83-4.17-1.22-.91-3.12-1.36-5.68-1.36h-1.7Z"/>
      <path class="cls-1" d="m330.28,107.47l-.36-5.04c5.13-.58,10.8-1.39,17-2.43,6.2-1.04,12.77-2.2,19.69-3.49l-9.58,34.35c6.98-12.03,13.51-20.8,19.6-26.3,6.08-5.5,12.26-8.25,18.52-8.25,4.47,0,7.89,1.28,10.25,3.83,2.36,2.56,3.53,6.23,3.53,11.01,0,1.55-.16,3.38-.49,5.48-.33,2.1-.85,4.51-1.57,7.23,6.03-9.44,11.77-16.4,17.23-20.86,5.46-4.46,10.96-6.7,16.51-6.7,4.47,0,7.89,1.26,10.25,3.78,2.36,2.52,3.53,6.21,3.53,11.06,0,2.59-.49,6.15-1.48,10.67-.98,4.53-2.4,9.8-4.25,15.82l-8.77,28.04c-.36,1.29-.63,2.38-.81,3.25-.18.87-.27,1.57-.27,2.09,0,1.23.27,2.23.81,3.01.54.78,1.22,1.16,2.06,1.16,1.37,0,2.88-.89,4.52-2.67,1.64-1.78,4.25-5.51,7.83-11.21l4.03,2.91c-5.55,9.38-10.59,16.14-15.12,20.28-4.53,4.14-9.16,6.21-13.87,6.21-3.94,0-6.97-1.29-9.08-3.88-2.12-2.59-3.18-6.27-3.18-11.06,0-2.97.54-6.79,1.61-11.45,1.07-4.66,3.16-11.9,6.26-21.74l6.26-20.28.18-.68c.95-3.36,1.43-5.6,1.43-6.7,0-1.23-.31-2.23-.94-3.01-.63-.78-1.48-1.17-2.55-1.17-5.49,0-11.37,5.18-17.63,15.53-6.26,10.35-12.23,24.87-17.9,43.57l-5.55,18.24h-21.03l18.52-65.79c.54-1.88.91-3.36,1.12-4.46.21-1.1.31-2.07.31-2.91,0-1.23-.31-2.23-.94-3.01-.63-.78-1.48-1.17-2.55-1.17-6.44,0-13.53,7.21-21.25,21.64-7.73,14.43-14,32.99-18.84,55.7h-21.84l15.39-62.39c.9-3.56,1.55-6.32,1.97-8.3.42-1.97.63-3.45.63-4.42,0-1.88-.61-3.27-1.83-4.17-1.22-.91-3.12-1.36-5.68-1.36h-1.7Z"/>
      <path class="cls-1" d="m534.23,165.69c-.36,1.55-.63,2.77-.81,3.64-.18.87-.27,1.5-.27,1.89,0,1.16.27,2.12.81,2.86s1.25,1.12,2.15,1.12c1.31,0,2.79-.89,4.43-2.67,1.64-1.78,4.25-5.51,7.83-11.21l4.03,2.91c-5.49,9.38-10.53,16.17-15.12,20.38-4.59,4.21-9.22,6.31-13.87,6.31-3.76,0-6.77-1.34-9.04-4.03-2.27-2.68-3.4-6.26-3.4-10.72,0-.91.12-2.12.36-3.64.24-1.52.6-3.41,1.07-5.68l1.88-9.12c-6.56,11.39-12.81,19.76-18.75,25.13-5.94,5.37-11.98,8.05-18.12,8.05-4.54,0-7.98-1.28-10.34-3.83-2.36-2.55-3.54-6.26-3.54-11.11,0-2.13.39-5.16,1.16-9.07.78-3.91,2.15-9.69,4.12-17.32l6.26-23.87c.77-3.11,1.36-5.74,1.75-7.91.39-2.17.58-3.77.58-4.8,0-1.88-.61-3.27-1.83-4.17-1.22-.91-3.12-1.36-5.68-1.36h-1.61l-.18-4.95c4.83-.65,10.26-1.46,16.29-2.43,6.03-.97,12.74-2.17,20.14-3.59l-17.72,68.31c-.42,1.49-.75,2.91-.98,4.27-.24,1.36-.36,2.46-.36,3.3,0,1.23.31,2.2.94,2.91.63.71,1.48,1.07,2.55,1.07,6.5,0,13.6-7.2,21.3-21.59,7.7-14.39,13.99-32.97,18.88-55.75h21.83l-16.73,66.66Z"/>
      <path class="cls-1" d="m563.58,107.47l-.36-5.04c5.13-.58,10.8-1.39,17-2.43,6.2-1.04,12.77-2.2,19.69-3.49l-9.58,34.35c6.98-12.03,13.51-20.8,19.6-26.3s12.26-8.25,18.52-8.25c4.53,0,7.96,1.26,10.29,3.78,2.33,2.52,3.49,6.21,3.49,11.06,0,2.46-.49,5.9-1.48,10.33-.98,4.43-2.46,9.82-4.43,16.16l-8.59,28.04c-.06.2-.15.49-.27.87-.66,2.39-.98,3.88-.98,4.46,0,1.23.3,2.23.89,3.01.6.78,1.34,1.16,2.24,1.16,1.25,0,2.64-.82,4.16-2.47,1.52-1.65,4.16-5.45,7.92-11.4l4.03,2.91c-5.55,9.38-10.59,16.14-15.12,20.28-4.53,4.14-9.16,6.21-13.87,6.21-3.94,0-6.97-1.29-9.08-3.88-2.12-2.59-3.18-6.27-3.18-11.06,0-2.97.54-6.79,1.61-11.45,1.07-4.66,3.16-11.9,6.26-21.74l6.44-20.28c.54-1.88.91-3.36,1.12-4.46.21-1.1.31-2.07.31-2.91,0-1.23-.31-2.23-.94-3.01-.63-.78-1.48-1.17-2.55-1.17-6.44,0-13.53,7.21-21.25,21.64-7.73,14.43-14.01,32.99-18.84,55.7h-21.83l15.39-62.39c.9-3.56,1.55-6.32,1.97-8.3.42-1.97.63-3.45.63-4.42,0-1.88-.61-3.27-1.83-4.17-1.22-.91-3.12-1.36-5.68-1.36h-1.7Z"/>
      <path class="cls-1" d="m664.62,125.72c.77-2.91,1.37-5.45,1.79-7.62.42-2.17.63-3.86.63-5.09,0-1.88-.61-3.27-1.83-4.17-1.22-.91-3.12-1.36-5.68-1.36h-1.7l-.18-5.04c6.92-.91,13.35-1.84,19.29-2.81,5.94-.97,11.44-2,16.51-3.11l-16.56,66.37c-.48,1.88-.84,3.59-1.07,5.14-.24,1.55-.36,2.81-.36,3.78,0,1.16.27,2.09.81,2.77s1.25,1.02,2.15,1.02c1.43,0,3.19-1.16,5.28-3.49,2.09-2.33,4.59-5.85,7.52-10.58l3.65,2.72c-4.71,8.93-9.45,15.54-14.22,19.84s-9.66,6.45-14.67,6.45c-4.18,0-7.42-1.29-9.75-3.88-2.33-2.59-3.49-6.15-3.49-10.67,0-2.26.72-6.37,2.15-12.32l.27-1.07,9.49-36.87Zm11.72-60.65c0-3.69,1.16-6.79,3.48-9.31s5.17-3.78,8.56-3.78,6.26,1.26,8.6,3.78,3.52,5.63,3.52,9.31-1.17,6.79-3.52,9.32-5.22,3.78-8.6,3.78-6.17-1.26-8.52-3.78-3.52-5.63-3.52-9.32Z"/>
      <path class="cls-1" d="m705.34,107.18v-6.89c6.5-2.46,12.5-6.18,17.99-11.16,5.49-4.98,10.56-11.19,15.21-18.63h7.52l-7.7,28.82h14.41l-1.97,7.86h-14.5l-13.6,50.55c-.78,2.98-1.39,5.64-1.83,8.01-.45,2.36-.67,4.25-.67,5.68s.25,2.46.76,3.3c.51.84,1.18,1.26,2.01,1.26,1.55,0,3.4-1.21,5.55-3.64,2.15-2.43,4.92-6.52,8.32-12.27l4.21,3.01c-5.19,9.38-10.31,16.33-15.35,20.86-5.04,4.53-10.25,6.79-15.62,6.79-4.06,0-7.15-1.2-9.26-3.59s-3.18-5.92-3.18-10.58c0-1.55.17-3.36.49-5.44.33-2.07.88-4.62,1.66-7.66l14.32-56.28h-8.77Z"/>
      <path class="cls-1" d="m746.42,106.6v-5.34c4.47-.45,9.51-1.39,15.12-2.81,5.61-1.42,9.1-2.13,10.47-2.13,3.22,0,7.7,16.43,13.42,49.29,1.43,8.41,2.6,15.04,3.49,19.89,4.89-9.64,8.71-18.02,11.46-25.13,2.74-7.12,4.12-12.13,4.12-15.04,0-2.46-1.69-5.13-5.06-8.01-3.37-2.88-5.06-5.9-5.06-9.07,0-3.62,1.04-6.52,3.13-8.69,2.09-2.17,4.83-3.25,8.23-3.25,3.58,0,6.34,1.13,8.28,3.4,1.94,2.26,2.91,5.5,2.91,9.7,0,4.79-1.67,11.63-5.01,20.52-3.34,8.9-9.25,21.98-17.72,39.25-9.43,19.41-18.72,34.21-27.88,44.39-9.16,10.19-17.71,15.28-25.64,15.28-4.12,0-7.44-1.13-9.98-3.4-2.53-2.27-3.8-5.18-3.8-8.73,0-3.24,1.03-5.94,3.09-8.1,2.06-2.17,4.58-3.25,7.56-3.25,2.33,0,5.29,1.2,8.9,3.59,3.61,2.39,6.19,3.59,7.74,3.59,1.37,0,2.8-.6,4.3-1.8,1.49-1.2,3.43-3.31,5.82-6.36,2.62-3.3,4.41-6.03,5.37-8.2.95-2.17,1.43-4.41,1.43-6.74,0-2.13-.37-6.1-1.12-11.89-.75-5.79-1.96-13.99-3.62-24.6-1.25-7.89-2.66-15.3-4.21-22.22-1.55-6.92-3.1-12.71-4.65-17.37-.84-2.59-1.88-4.4-3.13-5.43s-3.01-1.55-5.28-1.55c-.66,0-1.18.02-1.57.05-.39.03-.76.08-1.12.15Z"/>
    </g>
  </g>
</svg>