<?xml version="1.0" encoding="UTF-8"?>
<svg id="Layer_1" data-name="Layer 1" xmlns="http://www.w3.org/2000/svg" viewBox="0 0 809.71 243.96">
  <defs>
    <style>
      .cls-1 {
        fill: #fff;
      }

      .cls-2 {
        fill: none;
        stroke: #fff;
        stroke-miterlimit: 10;
        stroke-width: 3px;
      }
    </style>
  </defs>
  <rect class="cls-1" width="17.35" height="199.9"/>
  <g>
    <g>
      <g>
        <path class="cls-1" d="m25.91.02h57v22.91h-19.12v69.87h-18.75V22.93h-19.12V.02Z"/>
        <path class="cls-1" d="m81.98.02h18.75v32.46h20.49V.02h18.83v92.77h-18.83v-37.53h-20.49v37.53h-18.75V.02Z"/>
        <path class="cls-1" d="m142.98.02h50.25v19.81h-31.46v14.75h29.18v18.92h-29.18v18.29h32.37v21.01h-51.16V.02Z"/>
        <path class="cls-1" d="m214.27.02h18.79v92.77h-18.79V.02Z"/>
        <path class="cls-1" d="m237.14.02h17.51l22.85,51.33V.02h17.67v92.77h-17.67l-22.72-50.94v50.94h-17.63V.02Z"/>
        <path class="cls-1" d="m293.88.02h57v22.91h-19.12v69.87h-18.75V22.93h-19.12V.02Z"/>
        <path class="cls-1" d="m349.83.02h50.25v19.81h-31.46v14.75h29.18v18.92h-29.18v18.29h32.37v21.01h-51.16V.02Z"/>
        <path class="cls-1" d="m401.84,92.8V.02h31.25c5.79,0,10.22.76,13.29,2.28,3.06,1.52,5.53,4.33,7.41,8.45,1.88,4.11,2.81,9.12,2.81,15.03,0,5.15-.72,9.59-2.15,13.32-1.44,3.73-3.41,6.76-5.92,9.08-1.6,1.48-3.8,2.7-6.59,3.67,2.23,1.14,3.86,2.28,4.88,3.42.69.76,1.69,2.39,3,4.88s2.19,4.41,2.63,5.76l9.08,26.88h-21.19l-10.02-28.35c-1.27-3.67-2.4-6.05-3.39-7.15-1.35-1.43-2.88-2.15-4.6-2.15h-1.66v37.65h-18.83Zm18.83-55.18h7.91c.86,0,2.51-.42,4.97-1.27,1.24-.38,2.26-1.35,3.04-2.91.79-1.56,1.18-3.35,1.18-5.38,0-3-.62-5.29-1.86-6.9-1.24-1.6-3.57-2.4-6.99-2.4h-8.24v18.86Z"/>
        <path class="cls-1" d="m458.16.02h17.51l22.85,51.33V.02h17.67v92.77h-17.67l-22.72-50.94v50.94h-17.63V.02Z"/>
        <path class="cls-1" d="m519.12.02h50.25v19.81h-31.46v14.75h29.18v18.92h-29.18v18.29h32.37v21.01h-51.16V.02Z"/>
        <path class="cls-1" d="m566.62.02h57v22.91h-19.12v69.87h-18.75V22.93h-19.12V.02Z"/>
      </g>
      <rect class="cls-1" x="535.94" y="16.39" width="30.69" height="6.54"/>
    </g>
    <g>
      <g>
        <path class="cls-1" d="m92.24,196.52c-5.36,3.79-13.09,5.68-23.21,5.68-11.82,0-21.38-4.37-28.69-13.1-7.31-8.73-10.97-20-10.97-33.8,0-15.94,3.92-28.5,11.75-37.69,7.84-9.19,18.31-13.79,31.43-13.79,9.06,0,15.62,1.47,19.68,4.4v24.55c-4.96-4.52-10.49-6.78-16.6-6.78-6.81,0-12.21,2.43-16.19,7.28-3.98,4.85-5.97,11.56-5.97,20.1s1.9,14.82,5.71,19.56c3.81,4.73,9.04,7.1,15.7,7.1,5.91,0,11.69-2.26,17.35-6.78v23.27Z"/>
        <path class="cls-1" d="m305.56,199.9h-23.66v-53.49c0-13.62-4.11-20.43-12.32-20.43-3.91,0-7.09,2.05-9.54,6.14-2.45,4.09-3.68,9.19-3.68,15.3v52.48h-23.73v-54.04c0-13.25-4.03-19.88-12.09-19.88-4.06,0-7.3,1.96-9.73,5.86-2.43,3.91-3.64,9.22-3.64,15.94v52.12h-23.73v-93.79h23.73v14.65h.3c2.45-5.01,5.9-9.08,10.33-12.23,4.43-3.14,9.28-4.72,14.53-4.72,10.86,0,18.3,5.83,22.31,17.49,5.86-11.66,14.47-17.49,25.84-17.49,16.72,0,25.09,12.58,25.09,37.74v58.35Z"/>
        <path class="cls-1" d="m443.39,199.9h-23.66v-53.49c0-13.62-4.11-20.43-12.32-20.43-3.9,0-7.09,2.05-9.54,6.14-2.45,4.09-3.68,9.19-3.68,15.3v52.48h-23.73v-54.04c0-13.25-4.03-19.88-12.09-19.88-4.06,0-7.3,1.96-9.73,5.86-2.43,3.91-3.64,9.22-3.64,15.94v52.12h-23.73v-93.79h23.73v14.65h.3c2.45-5.01,5.9-9.08,10.33-12.23,4.43-3.14,9.28-4.72,14.53-4.72,10.86,0,18.3,5.83,22.31,17.49,5.86-11.66,14.47-17.49,25.84-17.49,16.72,0,25.09,12.58,25.09,37.74v58.35Z"/>
        <path class="cls-1" d="m532.17,199.9h-23.66v-14.29h-.38c-5.86,11.05-13.7,16.58-23.51,16.58-17.83,0-26.74-13.16-26.74-39.48v-56.6h23.66v54.04c0,13.25,4.31,19.88,12.92,19.88,4.25,0,7.66-1.82,10.21-5.45,2.55-3.63,3.83-8.56,3.83-14.79v-53.67h23.66v93.79Z"/>
        <path class="cls-1" d="m623.35,199.9h-23.66v-52.12c0-14.53-4.26-21.8-12.77-21.8-4.11,0-7.49,1.92-10.14,5.77-2.66,3.85-3.98,8.73-3.98,14.66v53.49h-23.73v-93.79h23.73v14.84h.3c5.66-11.42,13.9-17.13,24.71-17.13,17.02,0,25.54,12.88,25.54,38.65v57.43Z"/>
        <path class="cls-1" d="m651.07,91.27c-4.01,0-7.29-1.45-9.84-4.35-2.55-2.9-3.83-6.46-3.83-10.67s1.28-7.88,3.83-10.62,5.83-4.12,9.84-4.12,7.35,1.37,9.88,4.12c2.53,2.75,3.79,6.29,3.79,10.62s-1.26,8-3.79,10.81c-2.53,2.81-5.82,4.21-9.88,4.21Zm11.72,108.63h-23.73v-93.79h23.73v93.79Z"/>
        <path class="cls-1" d="m726.19,198.8c-3.51,2.26-8.79,3.39-15.85,3.39-16.72,0-25.09-10.59-25.09-31.78v-42.96h-12.47v-21.34h12.47v-20.24l23.66-8.24v28.49h17.28v21.34h-17.28v37.92c0,9.77,3.18,14.66,9.54,14.66,2.5,0,5.08-.88,7.74-2.66v21.43Z"/>
        <path class="cls-1" d="m809.71,106.11l-31.25,101.3c-7.51,24.36-18.83,36.55-33.95,36.55-5.76,0-10.49-.79-14.2-2.38v-23.08c3.15,2.26,6.58,3.39,10.29,3.39,6.11,0,10.37-3.51,12.77-10.53l4.06-11.63-31.25-93.61h26.29l14.35,57.06c.9,3.54,1.6,7.73,2.1,12.55h.3c.45-3.54,1.28-7.66,2.48-12.37l14.5-57.25h23.51Z"/>
      </g>
      <g>
        <circle class="cls-1" cx="135.13" cy="153.42" r="30"/>
        <polygon points="134.75 167.07 112.41 167.07 123.58 147.16 134.75 127.24 145.92 147.16 157.09 167.07 134.75 167.07"/>
        <circle class="cls-2" cx="135.13" cy="153.42" r="40"/>
      </g>
    </g>
  </g>
</svg>